<svg xmlns="http://www.w3.org/2000/svg" viewBox="0 0 400 300" width="400" height="300">
  <rect width="400" height="300" fill="#e6f7ff" />
  <g transform="translate(150, 100)">
    <path d="M50,0 C77.6,0 100,22.4 100,50 C100,77.6 77.6,100 50,100 C22.4,100 0,77.6 0,50 C0,22.4 22.4,0 50,0 Z" fill="#ffffff" />
    <path d="M50,10 C72.1,10 90,27.9 90,50 C90,72.1 72.1,90 50,90 C27.9,90 10,72.1 10,50 C10,27.9 27.9,10 50,10 Z" fill="#e6f7ff" />
    <path d="M50,20 C66.5,20 80,33.5 80,50 C80,66.5 66.5,80 50,80 C33.5,80 20,66.5 20,50 C20,33.5 33.5,20 50,20 Z" fill="#b3e0ff" />
    <path d="M70,40 C70,40 60,60 50,70 C40,60 30,40 30,40 C30,40 40,50 50,40 C60,50 70,40 70,40 Z" fill="#4dca88" />
    <path d="M50,30 C55,30 60,35 60,40 C60,45 55,50 50,50 C45,50 40,45 40,40 C40,35 45,30 50,30 Z" fill="#4dca88" />
  </g>
</svg>